<svg viewBox="0 0 250.0 250.0" xmlns="http://www.w3.org/2000/svg" xmlns:svg="http://www.w3.org/2000/svg" version="1.1">
 <g class="layer">
  <title>Layer 1</title>
  <g id="document" transform="translate(0.744215 0.909579) scale(1.17961 1.16975) translate(-0.744215 -0.909579) translate(212.444 213.115) matrix(0.0722015 0 0 0.0723739 -103.387 -104.433)">
   <path d="m530.21,1427.3c488.67,0 886.09,-397.42 886.09,-886.09l0,-1130.42c0,-488.67 -397.42,-886.09 -886.09,-886.09l-1130.42,0c-488.67,0 -886.09,397.42 -886.09,886.09l0,1130.42c0,488.67 397.42,886.09 886.09,886.09l1130.42,0z" fill="#000000" fill-opacity="1" id="svg_1"/>
   <path d="m0,-461.9l0,-461.9l-923.8,923.8l461.9,0l461.9,-461.9z" fill="#ffffff" fill-opacity="1" id="svg_2"/>
   <path d="m0,461.9l0,461.9l923.8,-923.8l-461.9,0l-461.9,461.9z" fill="#ffffff" fill-opacity="1" id="svg_3"/>
   <path d="m-138.31,0c0,30.49 24.89,55.38 55.38,55.38l165.86,0c30.49,0 55.38,-24.89 55.38,-55.38c0,-30.49 -24.89,-55.38 -55.38,-55.38l-165.86,0c-30.49,0 -55.38,24.89 -55.38,55.38z" fill="#ffffff" fill-opacity="1" id="svg_4"/>
  </g>
 </g>
</svg>